<svg xmlns="http://www.w3.org/2000/svg" width="1200" height="1200" viewBox="0 0 1200 1200">
  <metadata><?xpacket begin="﻿" id="W5M0MpCehiHzreSzNTczkc9d"?>
<x:xmpmeta xmlns:x="adobe:ns:meta/" x:xmptk="Adobe XMP Core 5.6-c138 79.159824, 2016/09/14-01:09:01        ">
   <rdf:RDF xmlns:rdf="http://www.w3.org/1999/02/22-rdf-syntax-ns#">
      <rdf:Description rdf:about=""/>
   </rdf:RDF>
</x:xmpmeta>
                                                                                                    
                                                                                                    
                                                                                                    
                                                                                                    
                                                                                                    
                                                                                                    
                                                                                                    
                                                                                                    
                                                                                                    
                                                                                                    
                                                                                                    
                                                                                                    
                                                                                                    
                                                                                                    
                                                                                                    
                                                                                                    
                                                                                                    
                                                                                                    
                                                                                                    
                                                                                                    
                           
<?xpacket end="w"?></metadata>
<defs>
    <style>
      .cls-1 {
        fill: none;
        stroke: #000;
        stroke-width: 15px;
      }
    </style>
  </defs>
  <rect class="cls-1" x="225" y="225" width="300" height="150" rx="50" ry="50"/>
  <rect id="Rectangle_2_copy_10" data-name="Rectangle 2 copy 10" class="cls-1" x="225" y="225" width="300" height="150"/>
  <rect id="Rectangle_2_copy" data-name="Rectangle 2 copy" class="cls-1" x="675" y="225" width="300" height="150"/>
  <rect id="Rectangle_2_copy_11" data-name="Rectangle 2 copy 11" class="cls-1" x="675" y="225" width="300" height="150" rx="50" ry="50"/>
  <rect id="Rectangle_2_copy_2" data-name="Rectangle 2 copy 2" class="cls-1" x="675" y="825" width="300" height="150"/>
  <rect id="Rectangle_2_copy_12" data-name="Rectangle 2 copy 12" class="cls-1" x="675" y="825" width="300" height="150" rx="50" ry="50"/>
  <rect id="Rectangle_2_copy_3" data-name="Rectangle 2 copy 3" class="cls-1" x="225" y="825" width="300" height="150" rx="50" ry="50"/>
  <rect id="Rectangle_2_copy_13" data-name="Rectangle 2 copy 13" class="cls-1" x="225" y="825" width="300" height="150"/>
  <rect id="Rectangle_2_copy_4" data-name="Rectangle 2 copy 4" class="cls-1" x="450" y="450" width="300" height="300" rx="110" ry="110"/>
  <rect id="Rectangle_2_copy_14" data-name="Rectangle 2 copy 14" class="cls-1" x="450" y="450" width="300" height="300" rx="60" ry="60"/>
  <rect id="Rectangle_2_copy_15" data-name="Rectangle 2 copy 15" class="cls-1" x="450" y="450" width="300" height="300"/>
  <rect id="Rectangle_2_copy_9" data-name="Rectangle 2 copy 9" class="cls-1" x="75" y="450" width="1050" height="300"/>
  <rect id="Rectangle_2_copy_16" data-name="Rectangle 2 copy 16" class="cls-1" x="75" y="450" width="1050" height="300" rx="40" ry="40"/>
  <rect id="Rectangle_2_copy_17" data-name="Rectangle 2 copy 17" class="cls-1" x="75" y="450" width="1050" height="300" rx="120" ry="120"/>
  <rect class="cls-1" x="150" y="75" width="150" height="525"/>
  <rect id="Rectangle_3_copy" data-name="Rectangle 3 copy" class="cls-1" x="150" y="75" width="150" height="525" rx="75" ry="75"/>
  <rect id="Rectangle_3_copy_2" data-name="Rectangle 3 copy 2" class="cls-1" x="900" y="75" width="150" height="525" rx="75" ry="75"/>
  <rect id="Rectangle_3_copy_8" data-name="Rectangle 3 copy 8" class="cls-1" x="900" y="75" width="150" height="525"/>
  <rect id="Rectangle_3_copy_3" data-name="Rectangle 3 copy 3" class="cls-1" x="900" y="600" width="150" height="525" rx="75" ry="75"/>
  <rect id="Rectangle_3_copy_9" data-name="Rectangle 3 copy 9" class="cls-1" x="900" y="600" width="150" height="525"/>
  <rect id="Rectangle_3_copy_4" data-name="Rectangle 3 copy 4" class="cls-1" x="900" y="600" width="150" height="525" rx="75" ry="75"/>
  <rect id="Rectangle_3_copy_5" data-name="Rectangle 3 copy 5" class="cls-1" x="150" y="600" width="150" height="525" rx="75" ry="75"/>
  <rect id="Rectangle_3_copy_10" data-name="Rectangle 3 copy 10" class="cls-1" x="150" y="600" width="150" height="525"/>
  <rect id="Rectangle_3_copy_6" data-name="Rectangle 3 copy 6" class="cls-1" x="525" y="450" width="150" height="525" rx="75" ry="75"/>
  <rect id="Rectangle_3_copy_12" data-name="Rectangle 3 copy 12" class="cls-1" x="525" y="450" width="150" height="525"/>
  <rect id="Rectangle_3_copy_7" data-name="Rectangle 3 copy 7" class="cls-1" x="525" y="225" width="150" height="525" rx="75" ry="75"/>
  <rect id="Rectangle_3_copy_11" data-name="Rectangle 3 copy 11" class="cls-1" x="525" y="225" width="150" height="525"/>
  <rect id="Rectangle_2_copy_7" data-name="Rectangle 2 copy 7" class="cls-1" x="450" width="300" height="300" rx="110" ry="110"/>
  <rect id="Rectangle_2_copy_19" data-name="Rectangle 2 copy 19" class="cls-1" x="450" width="300" height="300"/>
  <rect id="Rectangle_2_copy_8" data-name="Rectangle 2 copy 8" class="cls-1" x="450" y="900" width="300" height="300" rx="110" ry="110"/>
  <rect id="Rectangle_2_copy_18" data-name="Rectangle 2 copy 18" class="cls-1" x="450" y="900" width="300" height="300"/>
  <rect id="Rectangle_2_copy_5" data-name="Rectangle 2 copy 5" class="cls-1" x="75" y="450" width="300" height="300" rx="110" ry="110"/>
  <rect id="Rectangle_2_copy_6" data-name="Rectangle 2 copy 6" class="cls-1" x="825" y="450" width="300" height="300" rx="110" ry="110"/>
  <rect class="cls-1" x="498" y="525" width="204" height="150"/>
  <rect id="Rectangle_4_copy" data-name="Rectangle 4 copy" class="cls-1" x="498" y="525" width="204" height="150" rx="75" ry="75"/>
  <rect class="cls-1" x="375" y="375" width="450" height="450"/>
  <rect id="Rectangle_5_copy" data-name="Rectangle 5 copy" class="cls-1" x="375" y="375" width="450" height="450" rx="100" ry="100"/>
  <rect class="cls-1" x="525" y="75" width="150" height="150"/>
  <rect id="Rectangle_6_copy" data-name="Rectangle 6 copy" class="cls-1" x="525" y="75" width="150" height="150" rx="75" ry="75"/>
  <rect id="Rectangle_6_copy_2" data-name="Rectangle 6 copy 2" class="cls-1" x="525" y="975" width="150" height="150" rx="75" ry="75"/>
  <rect id="Rectangle_6_copy_3" data-name="Rectangle 6 copy 3" class="cls-1" x="525" y="975" width="150" height="150"/>
</svg>
